<svg width="20" height="13" viewBox="0 0 20 13" fill="none" xmlns="http://www.w3.org/2000/svg">
<path d="M19.0617 5.53864L18.1858 3.50786C18.0308 3.14555 17.7726 2.83692 17.4432 2.62054C17.1139 2.40416 16.7281 2.28962 16.3341 2.29124H14.9208V1.77339C14.9206 1.56758 14.8387 1.37026 14.6932 1.22473C14.5477 1.0792 14.3503 0.997328 14.1445 0.997084H4.26761C4.19947 0.996593 4.13191 1.00965 4.06886 1.0355C4.00581 1.06135 3.94853 1.09948 3.90034 1.14766C3.85216 1.19585 3.81403 1.25313 3.78818 1.31618C3.76233 1.37923 3.74927 1.44679 3.74976 1.51493C3.75214 1.65153 3.80746 1.78188 3.90406 1.87848C4.00067 1.97509 4.13101 2.03041 4.26761 2.03278H13.8454V5.85526C13.8447 5.96783 13.8663 6.07944 13.9091 6.18359C13.9518 6.28774 14.0148 6.38236 14.0944 6.46197C14.174 6.54157 14.2687 6.60457 14.3728 6.64732C14.477 6.69006 14.5886 6.71169 14.7011 6.71095H18.1451V9.12204C18.1453 9.14559 18.1407 9.16893 18.1318 9.19072C18.1228 9.2125 18.1096 9.23229 18.093 9.24894C18.0763 9.2656 18.0565 9.27878 18.0347 9.28774C18.0129 9.29669 17.9896 9.30124 17.9661 9.30112H17.3291C17.1613 9.01132 16.9204 8.7706 16.6305 8.60296C16.3405 8.43532 16.0117 8.34663 15.6768 8.34573C15.3428 8.35086 15.0156 8.44134 14.7264 8.60856C14.4372 8.77578 14.1956 9.01419 14.0245 9.30112H8.70853C8.54068 9.01132 8.29978 8.7706 8.00985 8.60296C7.71993 8.43532 7.39112 8.34663 7.05622 8.34573C6.7222 8.35086 6.39503 8.44134 6.10583 8.60856C5.81663 8.77578 5.575 9.01419 5.40392 9.30112H3.57253C3.43519 9.30112 3.30348 9.35568 3.20636 9.45279C3.10925 9.54991 3.05469 9.68163 3.05469 9.81897C3.05469 9.95631 3.10925 10.088 3.20636 10.1851C3.30348 10.2823 3.43519 10.3368 3.57253 10.3368H5.14176C5.16058 10.8311 5.37018 11.2989 5.72655 11.642C6.08291 11.985 6.55833 12.1767 7.05299 12.1767C7.54765 12.1767 8.02307 11.985 8.37944 11.642C8.73581 11.2989 8.9454 10.8311 8.96422 10.3368H13.7642C13.783 10.8311 13.9926 11.2989 14.349 11.642C14.7054 11.985 15.1808 12.1767 15.6754 12.1767C16.1701 12.1767 16.6455 11.985 17.0019 11.642C17.3583 11.2989 17.5679 10.8311 17.5867 10.3368H18.0085C18.33 10.3351 18.6378 10.2065 18.865 9.97903C19.0921 9.75153 19.2202 9.44353 19.2214 9.12204V6.33434C19.2164 6.06167 19.1623 5.79213 19.0617 5.53864ZM7.05622 11.1325C6.88297 11.1325 6.7136 11.0811 6.56954 10.9849C6.42549 10.8886 6.31321 10.7518 6.2469 10.5917C6.1806 10.4317 6.16326 10.2555 6.19706 10.0856C6.23086 9.91568 6.31429 9.75959 6.4368 9.63708C6.55931 9.51457 6.7154 9.43114 6.88532 9.39734C7.05525 9.36354 7.23139 9.38088 7.39145 9.44719C7.55152 9.51349 7.68833 9.62577 7.78459 9.76983C7.88085 9.91389 7.93222 10.0833 7.93222 10.2565C7.93029 10.4882 7.83738 10.7099 7.67351 10.8738C7.50965 11.0377 7.28796 11.1306 7.05622 11.1325ZM15.6768 11.1325C15.5036 11.1325 15.3342 11.0811 15.1902 10.9849C15.0461 10.8886 14.9338 10.7518 14.8675 10.5917C14.8012 10.4317 14.7839 10.2555 14.8177 10.0856C14.8515 9.91568 14.9349 9.75959 15.0574 9.63708C15.1799 9.51457 15.336 9.43114 15.5059 9.39734C15.6759 9.36354 15.852 9.38088 16.0121 9.44719C16.1721 9.51349 16.3089 9.62577 16.4052 9.76983C16.5015 9.91389 16.5528 10.0833 16.5528 10.2565C16.5509 10.4882 16.458 10.7099 16.2941 10.8738C16.1303 11.0377 15.9086 11.1306 15.6768 11.1325ZM14.9005 3.34817H16.3138C16.5008 3.34535 16.6844 3.39887 16.8406 3.50176C16.9968 3.60464 17.1185 3.75215 17.1898 3.9251L17.9467 5.67895H14.9005V3.34817Z" fill="#FBB03B"/>
<path d="M2.77689 4.20668H6.44058C6.57792 4.20668 6.70964 4.15211 6.80676 4.05499C6.90387 3.95787 6.95843 3.82614 6.95843 3.68879C6.95843 3.55144 6.90387 3.41972 6.80676 3.3226C6.70964 3.22548 6.57792 3.17091 6.44058 3.17091H2.77689C2.70875 3.17042 2.64119 3.18348 2.57814 3.20933C2.51509 3.23519 2.45781 3.27331 2.40963 3.3215C2.36144 3.36969 2.32331 3.42698 2.29746 3.49003C2.27161 3.55308 2.25856 3.62065 2.25905 3.68879C2.26142 3.8254 2.31674 3.95576 2.41334 4.05237C2.50995 4.14898 2.64029 4.2043 2.77689 4.20668Z" fill="#FBB03B"/>
<path d="M1.80107 6.19631H5.46478C5.53279 6.19631 5.60013 6.18291 5.66295 6.15689C5.72578 6.13087 5.78287 6.09273 5.83096 6.04464C5.87904 5.99656 5.91719 5.93947 5.94321 5.87665C5.96924 5.81382 5.98263 5.74649 5.98263 5.67848C5.98263 5.61048 5.96924 5.54314 5.94321 5.48032C5.91719 5.41749 5.87904 5.36041 5.83096 5.31233C5.78287 5.26424 5.72578 5.2261 5.66295 5.20008C5.60013 5.17405 5.53279 5.16066 5.46478 5.16066H1.80107C1.73292 5.16017 1.66536 5.17323 1.60231 5.19908C1.53926 5.22493 1.48198 5.26305 1.4338 5.31123C1.38561 5.35941 1.34749 5.41669 1.32163 5.47974C1.29578 5.54279 1.28273 5.61034 1.28322 5.67848C1.28559 5.81508 1.34091 5.94542 1.43752 6.04202C1.53412 6.13862 1.66446 6.19394 1.80107 6.19631Z" fill="#FBB03B"/>
<path d="M5.0264 7.66969C5.02689 7.60155 5.01383 7.53399 4.98798 7.47095C4.96213 7.4079 4.92401 7.35062 4.87582 7.30244C4.82764 7.25426 4.77036 7.21614 4.70731 7.19029C4.64426 7.16444 4.5767 7.15138 4.50855 7.15187H0.825465C0.688123 7.15187 0.556407 7.20643 0.459291 7.30353C0.362176 7.40064 0.307617 7.53235 0.307617 7.66969C0.307617 7.80702 0.362176 7.93873 0.459291 8.03584C0.556407 8.13294 0.688123 8.1875 0.825465 8.1875H4.48825C4.55833 8.19187 4.62856 8.18162 4.69448 8.15742C4.76039 8.13321 4.82056 8.09557 4.87116 8.04688C4.92176 7.9982 4.96169 7.93953 4.98841 7.87459C5.01514 7.80966 5.02807 7.73988 5.0264 7.66969Z" fill="#FBB03B"/>
</svg>
